<svg width="832" height="420" viewBox="0 0 832 420" fill="none" xmlns="http://www.w3.org/2000/svg">
<g style="mix-blend-mode:hard-light" filter="url(#filter0_d_1_6)">
<path d="M226.5 301C217.591 276.299 215.021 261.832 214.5 235C214.7 200.694 217.399 182.775 226.5 153C239.891 119.119 247.5 103 271.5 76.5C295.5 50 327.5 22.5 370.5 10.5C370.5 10.5 400 2.99996 422 1.99999C444 1.00002 453 0.590929 473.5 1.99999C494 3.40904 524 15.5 524 15.5C552 27.5 566.235 36.0769 589.5 55.5C608.5 73.5 620 84.5 633 105.5C658.118 149.983 665.77 174.618 668 218C669.118 251.231 665.83 269.711 655.5 302.5H242M226.5 301.5C226.5 301.5 230 304.5 228.5 303.5C227 302.5 235.5 303 241.5 302.5M140 359.5C137.375 360.483 136.326 361.275 135 363C135.065 366.698 134.437 368.184 139 370H306.5C307.476 367.852 310.5 368 309 364.5C307.5 361 306.617 361.424 303.5 359.5H140.5M731 346.5C730.364 349.236 729.046 350.271 725.5 351.5H618.5C615.281 350.514 614.244 349.242 614.5 345C614.5 345 615.32 342.15 618.5 341H727C729.456 342.272 730.304 343.389 731 346M780 346.5C779.134 348.826 777.836 349.851 775 351.5H762C762 351.5 756.646 349.001 754 346C755.063 342.946 756.538 341.89 760.5 341H775C777.947 342.694 778.819 343.847 780 346M6.99994 360C9.99985 359 23.3529 359.667 27.4999 360C31.647 360.333 29.5 369.5 27.4999 369.5C25.4999 369.5 9.99987 369.5 6.99994 369.5C4.00001 369.5 4.00003 361 6.99994 360ZM65.5 359.5C63.3644 361.092 62.5 361 62 364.5C61.5 368 66 370 66 370H83L86 367C86 367 87.5 361.5 86 360C84.5 358.5 65.5 359.5 65.5 359.5ZM807 341C803.919 342.261 803.5 344 802 346.5C800.5 349 804.5 351.5 808.5 351.5H822L826.5 346C824.743 344.047 826 341.5 822 341C818 340.5 807 341 807 341ZM489.5 400C487.4 400.5 487 401.5 486 404C485 406.5 485 407 486 408.5C487 410 488.743 409.719 490.5 410.5C490.5 410.5 573.364 411.043 575.5 410.5C577.636 409.957 580.891 409.56 581 406.5C581.109 403.44 579.565 402.528 577 400.5C577 400.5 491.6 399.5 489.5 400ZM613 400.5C617 399.5 630 400.5 630 400.5C632.968 400.979 634.293 402.254 636.5 405C634.849 407.842 637.5 407 631.5 409.5C625.5 412 620.5 410.5 614.5 410.5C608.5 410.5 609 406.5 609 406.5C610.562 404.157 609 401.5 613 400.5Z" stroke="black" shape-rendering="crispEdges"/>
</g>
<defs>
<filter id="filter0_d_1_6" x="0.25" y="0.590179" width="830.909" height="418.856" filterUnits="userSpaceOnUse" color-interpolation-filters="sRGB">
<feFlood flood-opacity="0" result="BackgroundImageFix"/>
<feColorMatrix in="SourceAlpha" type="matrix" values="0 0 0 0 0 0 0 0 0 0 0 0 0 0 0 0 0 0 127 0" result="hardAlpha"/>
<feOffset dy="4"/>
<feGaussianBlur stdDeviation="2"/>
<feComposite in2="hardAlpha" operator="out"/>
<feColorMatrix type="matrix" values="0 0 0 0 0 0 0 0 0 0 0 0 0 0 0 0 0 0 0.25 0"/>
<feBlend mode="normal" in2="BackgroundImageFix" result="effect1_dropShadow_1_6"/>
<feBlend mode="normal" in="SourceGraphic" in2="effect1_dropShadow_1_6" result="shape"/>
</filter>
</defs>
</svg>
